<svg t="1715154639943" class="icon" viewBox="0 0 1024 1024" version="1.1" xmlns="http://www.w3.org/2000/svg" p-id="4524" width="32" height="32"><path d="M803.4816 515.84c-1.9968 159.2576-131.712 287.744-291.456 287.744S222.5664 675.0976 220.5696 515.84c-0.0256-1.2544-0.0512-2.5088-0.0512-3.7632 0-80.4864 65.2544-145.7664 145.7408-145.7664s145.7664 65.28 145.7664 145.7664 65.2544 145.7664 145.7664 145.7664 143.6928-63.2576 145.6896-142.0032z" p-id="4525"></path><path d="M366.2592 512.1024m-43.8016 0a43.8016 43.8016 0 1 0 87.6032 0 43.8016 43.8016 0 1 0-87.6032 0Z" fill="#FFFFFF" p-id="4526"></path><path d="M220.5184 508.16c1.9968-159.2576 131.712-287.744 291.456-287.744s289.4592 128.4864 291.456 287.744c0.0256 1.2544 0.0512 2.5088 0.0512 3.7632 0 80.4864-65.2544 145.7664-145.7408 145.7664s-145.7664-65.28-145.7664-145.7664-65.2544-145.7664-145.7664-145.7664-143.6928 63.2576-145.6896 142.0032z" fill="#FFFFFF" p-id="4527"></path><path d="M657.7408 511.8976m-43.8016 0a43.8016 43.8016 0 1 0 87.6032 0 43.8016 43.8016 0 1 0-87.6032 0Z" p-id="4528"></path><path d="M431.616 53.3248h163.4048v24.832H431.616zM431.616 96.4608h163.4048v24.832H431.616zM431.616 139.5968h163.4048v24.832H431.616zM161.27232 275.05408L276.8128 159.5136l17.5616 17.55904-115.5456 115.54304zM191.7696 305.56928l115.5456-115.54304 17.55904 17.55904-115.5456 115.54304zM196.67456 178.61632L246.272 129.01632l17.55648 17.5616L214.2336 196.1728zM130.75968 244.57472L179.90656 195.4304l17.55904 17.55648-49.14688 49.14688zM53.248 592.512v-163.4048h24.832v163.4048zM139.52 592.512v-163.4048h24.832v163.4048zM96.4096 429.1072h24.832v70.144h-24.832zM96.4096 523.008h24.832v69.504h-24.832z" p-id="4529"></path><path d="M305.50016 832.32512l-115.54304-115.54304 17.55648-17.5616 115.5456 115.5456zM195.34336 844.1856l17.5616-17.5616 49.14432 49.14944-17.55904 17.55648zM128.95744 777.8176l17.5616-17.5616 49.59744 49.6-17.5616 17.5616z" p-id="4530"></path><path d="M159.44704 747.28192l17.5616-17.55904 49.59744 49.6-17.5616 17.55904zM225.85856 813.71136l17.5616-17.55904 49.14432 49.14688-17.55904 17.5616z" p-id="4531"></path><path d="M429.0304 946.0224h70.144v24.832h-70.144zM522.9568 946.0224h69.504v24.832h-69.504zM429.0304 902.8864h70.144v24.832h-70.144zM522.9568 902.8864h69.504v24.832h-69.504z" p-id="4532"></path><path d="M429.0304 859.7504h70.144v24.832h-70.144zM522.9568 859.7504h69.504v24.832h-69.504z" p-id="4533"></path><path d="M893.2864 779.6224l-115.54304 115.54304-17.55904-17.55904 115.5456-115.54304zM796.07552 780.68992l49.14688-49.14688 17.55904 17.55904-49.14688 49.14688zM729.68192 847.104l49.6-49.60256 17.55904 17.5616-49.6 49.59744z" p-id="4534"></path><path d="M699.1744 816.5888l49.6-49.60256 17.55648 17.5616-49.59744 49.59744zM765.57824 750.20032l49.14688-49.14688 17.55904 17.55904-49.14688 49.14688z" p-id="4535"></path><path d="M927.6672 431.6672v163.4048h-24.832v-163.4048zM945.9456 431.6672h24.832v69.504h-24.832zM945.9456 524.928h24.832v70.144h-24.832z" p-id="4536"></path><path d="M859.6736 431.6672h24.832v69.504h-24.832zM859.6736 524.928h24.832v70.144h-24.832z" p-id="4537"></path><path d="M779.55328 130.8416l115.54304 115.54304-17.55648 17.5616-115.5456-115.5456zM749.0432 161.3312l115.5456 115.54304-17.55904 17.5616-115.54304-115.5456zM700.99456 209.40288l17.55904-17.5616 49.14688 49.14944-17.5616 17.55904zM766.92736 275.34336l17.5616-17.5616 49.59744 49.6-17.55904 17.5616z" p-id="4538"></path></svg>
